<?xml version="1.0" encoding="iso-8859-1"?>
<!-- Generator: Adobe Illustrator 19.0.0, SVG Export Plug-In . SVG Version: 6.00 Build 0)  -->
<svg version="1.1" id="Layer_1" xmlns="http://www.w3.org/2000/svg" xmlns:xlink="http://www.w3.org/1999/xlink" x="0px" y="0px"
	 viewBox="0 0 512 512" style="enable-background:new 0 0 512 512;" xml:space="preserve">
<polygon style="fill:#E65F58;" points="178.613,483.316 178.613,337.816 79.066,410.566 "/>
<polygon style="fill:#5ECB66;" points="352.5,28.683 352.5,174.183 452.048,101.433 "/>
<g>
	<path style="fill:#314E55;" d="M338.462,201.82c1.387,0.703,2.887,1.047,4.377,1.047c2.009,0,4.01-0.627,5.698-1.858
		l125.585-91.774c2.49-1.821,3.962-4.717,3.962-7.802s-1.472-5.981-3.962-7.802L348.538,1.857
		c-2.934-2.141-6.821-2.458-10.076-0.811c-3.236,1.646-5.283,4.976-5.283,8.613v183.548
		C333.179,196.844,335.227,200.174,338.462,201.82z M352.5,28.683l99.547,72.75l-99.547,72.75V28.683z"/>
	<rect x="62.688" y="62.793" style="fill:#314E55;" width="251.17" height="19.321"/>
	<rect x="62.688" y="120.755" style="fill:#314E55;" width="251.17" height="19.321"/>
	<path style="fill:#314E55;" d="M192.651,310.179c-3.255-1.646-7.132-1.33-10.076,0.811L56.99,402.764
		c-2.49,1.821-3.962,4.717-3.962,7.802s1.472,5.981,3.962,7.802l125.585,91.774c1.689,1.231,3.689,1.858,5.698,1.858
		c1.491,0,2.991-0.344,4.377-1.047c3.236-1.646,5.283-4.976,5.283-8.613V318.792C197.934,315.155,195.887,311.825,192.651,310.179z
		 M178.613,483.316l-99.547-72.75l99.547-72.75V483.316z"/>
	<rect x="217.255" y="371.925" style="fill:#314E55;" width="251.17" height="19.321"/>
	<rect x="217.255" y="429.888" style="fill:#314E55;" width="251.17" height="19.321"/>
	<path style="fill:#314E55;" d="M246.34,256c0-5.335-4.321-9.66-9.66-9.66h-38.642c-5.34,0-9.66,4.325-9.66,9.66
		c0,5.335,4.321,9.66,9.66,9.66h38.642C242.019,265.66,246.34,261.334,246.34,256z"/>
	<path style="fill:#314E55;" d="M120.754,246.339c-5.34,0-9.66,4.325-9.66,9.66c0,5.335,4.321,9.66,9.66,9.66h38.642
		c5.34,0,9.66-4.325,9.66-9.66c0-5.335-4.321-9.66-9.66-9.66H120.754z"/>
	<path style="fill:#314E55;" d="M91.773,256c0-5.335-4.321-9.66-9.66-9.66H43.471c-5.34,0-9.66,4.325-9.66,9.66
		c0,5.335,4.321,9.66,9.66,9.66h38.642C87.452,265.66,91.773,261.334,91.773,256z"/>
	<path style="fill:#314E55;" d="M468.529,246.339h-38.642c-5.34,0-9.66,4.325-9.66,9.66c0,5.335,4.321,9.66,9.66,9.66h38.642
		c5.34,0,9.66-4.325,9.66-9.66C478.189,250.665,473.868,246.339,468.529,246.339z"/>
	<path style="fill:#314E55;" d="M352.604,246.339c-5.34,0-9.66,4.325-9.66,9.66c0,5.335,4.321,9.66,9.66,9.66h38.642
		c5.34,0,9.66-4.325,9.66-9.66c0-5.335-4.321-9.66-9.66-9.66H352.604z"/>
	<path style="fill:#314E55;" d="M265.66,256c0,5.335,4.321,9.66,9.66,9.66h38.642c5.34,0,9.66-4.325,9.66-9.66
		c0-5.335-4.321-9.66-9.66-9.66h-38.642C269.981,246.339,265.66,250.665,265.66,256z"/>
</g>
<g>
</g>
<g>
</g>
<g>
</g>
<g>
</g>
<g>
</g>
<g>
</g>
<g>
</g>
<g>
</g>
<g>
</g>
<g>
</g>
<g>
</g>
<g>
</g>
<g>
</g>
<g>
</g>
<g>
</g>
</svg>
